<svg width="1288" height="1229" viewBox="0 0 1288 1229" fill="none" xmlns="http://www.w3.org/2000/svg">
<circle cx="634" cy="664" r="565" fill="url(#paint0_radial_496_745)" fill-opacity="0.48"/>
<path d="M1151.97 876.191L1025.99 804.134L1150.62 731.294L1276.99 802.23L1151.97 876.191Z" stroke="#F18FC8" stroke-width="6"/>
<path d="M1021 950.162L1152.25 1023.3L1281.5 949.162" stroke="#F18FC8" stroke-width="6"/>
<line x1="1280.5" y1="802.162" x2="1280.5" y2="952.162" stroke="#F18FC8" stroke-width="5"/>
<line x1="1280.5" y1="802.162" x2="1280.5" y2="952.162" stroke="#F18FC8" stroke-width="5"/>
<line x1="1022.5" y1="804" x2="1022.5" y2="953" stroke="#F18FC8" stroke-width="5"/>
<line x1="1022.5" y1="804" x2="1022.5" y2="953" stroke="#F18FC8" stroke-width="5"/>
<path d="M1152 876.162L1153 1021.16" stroke="#F18FC8" stroke-width="5"/>
<line x1="1281.08" y1="829.479" x2="1152.6" y2="904.94" stroke="#F18FC8" stroke-width="4"/>
<line x1="1280.96" y1="933.925" x2="1152.48" y2="1009.39" stroke="#F18FC8" stroke-width="4"/>
<line x1="1281.27" y1="918.664" x2="1152.79" y2="994.124" stroke="#F18FC8" stroke-width="4"/>
<line x1="1282.45" y1="902.896" x2="1153.97" y2="978.357" stroke="#F18FC8" stroke-width="4"/>
<line x1="1281.04" y1="888.648" x2="1152.56" y2="964.109" stroke="#F18FC8" stroke-width="4"/>
<line x1="1280.49" y1="873.894" x2="1152.01" y2="949.354" stroke="#F18FC8" stroke-width="4"/>
<line x1="1281.67" y1="858.126" x2="1153.19" y2="933.587" stroke="#F18FC8" stroke-width="4"/>
<line x1="1280.76" y1="844.74" x2="1152.29" y2="920.2" stroke="#F18FC8" stroke-width="4"/>
<line x1="1280.53" y1="814.725" x2="1152.05" y2="890.185" stroke="#F18FC8" stroke-width="4"/>
<path d="M1153.97 689.191L1027.99 617.134L1152.62 544.294L1278.99 615.23L1153.97 689.191Z" stroke="#AD6A91" stroke-width="6"/>
<path d="M1023 763.162L1154.25 836.304L1283.5 762.162" stroke="#AD6A91" stroke-width="6"/>
<line x1="1282.5" y1="615.162" x2="1282.5" y2="765.162" stroke="#AD6A91" stroke-width="5"/>
<line x1="1282.5" y1="615.162" x2="1282.5" y2="765.162" stroke="#AD6A91" stroke-width="5"/>
<line x1="1024.5" y1="617" x2="1024.5" y2="766" stroke="#AD6A91" stroke-width="5"/>
<line x1="1024.5" y1="617" x2="1024.5" y2="766" stroke="#AD6A91" stroke-width="5"/>
<path d="M1154 689.162L1155 834.162" stroke="#AD6A91" stroke-width="5"/>
<line x1="1283.08" y1="642.479" x2="1154.6" y2="717.94" stroke="#AD6A91" stroke-width="4"/>
<line x1="1282.96" y1="746.925" x2="1154.48" y2="822.385" stroke="#AD6A91" stroke-width="4"/>
<line x1="1283.27" y1="731.664" x2="1154.79" y2="807.124" stroke="#AD6A91" stroke-width="4"/>
<line x1="1284.45" y1="715.896" x2="1155.97" y2="791.357" stroke="#AD6A91" stroke-width="4"/>
<line x1="1283.04" y1="701.648" x2="1154.56" y2="777.109" stroke="#AD6A91" stroke-width="4"/>
<line x1="1282.49" y1="686.894" x2="1154.01" y2="762.354" stroke="#AD6A91" stroke-width="4"/>
<line x1="1283.67" y1="671.126" x2="1155.19" y2="746.587" stroke="#AD6A91" stroke-width="4"/>
<line x1="1282.76" y1="657.74" x2="1154.29" y2="733.2" stroke="#AD6A91" stroke-width="4"/>
<line x1="1282.53" y1="627.725" x2="1154.05" y2="703.185" stroke="#AD6A91" stroke-width="4"/>
<path d="M1155.97 494.191L1029.99 422.134L1154.62 349.294L1280.99 420.23L1155.97 494.191Z" stroke="#6D415B" stroke-width="6"/>
<path d="M1025 568.162L1156.25 641.304L1285.5 567.162" stroke="#6D415B" stroke-width="6"/>
<line x1="1284.5" y1="420.162" x2="1284.5" y2="570.162" stroke="#6D415B" stroke-width="5"/>
<line x1="1284.5" y1="420.162" x2="1284.5" y2="570.162" stroke="#6D415B" stroke-width="5"/>
<line x1="1026.5" y1="422" x2="1026.5" y2="571" stroke="#6D415B" stroke-width="5"/>
<line x1="1026.5" y1="422" x2="1026.5" y2="571" stroke="#6D415B" stroke-width="5"/>
<path d="M1156 494.162L1157 639.162" stroke="#6D415B" stroke-width="5"/>
<line x1="1285.08" y1="447.479" x2="1156.6" y2="522.94" stroke="#6D415B" stroke-width="4"/>
<line x1="1284.96" y1="551.925" x2="1156.48" y2="627.385" stroke="#6D415B" stroke-width="4"/>
<line x1="1285.27" y1="536.664" x2="1156.79" y2="612.124" stroke="#6D415B" stroke-width="4"/>
<line x1="1286.45" y1="520.896" x2="1157.97" y2="596.357" stroke="#6D415B" stroke-width="4"/>
<line x1="1285.04" y1="506.648" x2="1156.56" y2="582.109" stroke="#6D415B" stroke-width="4"/>
<line x1="1284.49" y1="491.894" x2="1156.01" y2="567.354" stroke="#6D415B" stroke-width="4"/>
<line x1="1285.67" y1="476.126" x2="1157.19" y2="551.587" stroke="#6D415B" stroke-width="4"/>
<line x1="1284.76" y1="462.74" x2="1156.29" y2="538.2" stroke="#6D415B" stroke-width="4"/>
<line x1="1284.53" y1="432.725" x2="1156.05" y2="508.185" stroke="#6D415B" stroke-width="4"/>
<path d="M390.975 189.191L264.993 117.134L389.617 44.2937L515.993 115.23L390.975 189.191Z" stroke="#835570" stroke-width="6"/>
<path d="M260 263.162L391.252 336.304L520.5 262.162" stroke="#835570" stroke-width="6"/>
<line x1="519.5" y1="115.162" x2="519.5" y2="265.162" stroke="#835570" stroke-width="5"/>
<line x1="519.5" y1="115.162" x2="519.5" y2="265.162" stroke="#835570" stroke-width="5"/>
<line x1="261.5" y1="117" x2="261.5" y2="266" stroke="#835570" stroke-width="5"/>
<line x1="261.5" y1="117" x2="261.5" y2="266" stroke="#835570" stroke-width="5"/>
<path d="M391 189.162L392 334.162" stroke="#835570" stroke-width="5"/>
<line x1="520.079" y1="142.479" x2="391.6" y2="217.94" stroke="#835570" stroke-width="4"/>
<line x1="519.958" y1="246.925" x2="391.48" y2="322.385" stroke="#835570" stroke-width="4"/>
<line x1="520.273" y1="231.664" x2="391.794" y2="307.124" stroke="#835570" stroke-width="4"/>
<line x1="521.449" y1="215.896" x2="392.971" y2="291.357" stroke="#835570" stroke-width="4"/>
<line x1="520.039" y1="201.648" x2="391.56" y2="277.109" stroke="#835570" stroke-width="4"/>
<line x1="519.492" y1="186.894" x2="391.013" y2="262.354" stroke="#835570" stroke-width="4"/>
<line x1="520.668" y1="171.126" x2="392.189" y2="246.587" stroke="#835570" stroke-width="4"/>
<line x1="519.764" y1="157.74" x2="391.286" y2="233.2" stroke="#835570" stroke-width="4"/>
<line x1="519.531" y1="127.725" x2="391.053" y2="203.185" stroke="#835570" stroke-width="4"/>
<path d="M132.975 907.191L6.99327 835.134L131.617 762.294L257.993 833.23L132.975 907.191Z" stroke="#FFC1AF" stroke-width="6"/>
<path d="M2 981.162L133.252 1054.3L262.5 980.162" stroke="#FFC1AF" stroke-width="6"/>
<line x1="261.5" y1="833.162" x2="261.5" y2="983.162" stroke="#FFC1AF" stroke-width="5"/>
<line x1="261.5" y1="833.162" x2="261.5" y2="983.162" stroke="#FFC1AF" stroke-width="5"/>
<line x1="3.5" y1="835" x2="3.5" y2="984" stroke="#FFC1AF" stroke-width="5"/>
<line x1="3.5" y1="835" x2="3.5" y2="984" stroke="#FFC1AF" stroke-width="5"/>
<path d="M133 907.162L134 1052.16" stroke="#FFC1AF" stroke-width="5"/>
<line x1="262.079" y1="860.479" x2="133.6" y2="935.94" stroke="#FFC1AF" stroke-width="4"/>
<line x1="261.958" y1="964.925" x2="133.48" y2="1040.39" stroke="#FFC1AF" stroke-width="4"/>
<line x1="262.273" y1="949.664" x2="133.794" y2="1025.12" stroke="#FFC1AF" stroke-width="4"/>
<line x1="263.449" y1="933.896" x2="134.971" y2="1009.36" stroke="#FFC1AF" stroke-width="4"/>
<line x1="262.039" y1="919.648" x2="133.56" y2="995.109" stroke="#FFC1AF" stroke-width="4"/>
<line x1="261.492" y1="904.894" x2="133.013" y2="980.354" stroke="#FFC1AF" stroke-width="4"/>
<line x1="262.668" y1="889.126" x2="134.189" y2="964.587" stroke="#FFC1AF" stroke-width="4"/>
<line x1="261.764" y1="875.74" x2="133.286" y2="951.2" stroke="#FFC1AF" stroke-width="4"/>
<line x1="261.531" y1="845.725" x2="133.053" y2="921.185" stroke="#FFC1AF" stroke-width="4"/>
<path d="M132.975 723.191L6.99327 651.134L131.617 578.294L257.993 649.23L132.975 723.191Z" stroke="#D1A092" stroke-width="6"/>
<path d="M2 797.162L133.252 870.304L262.5 796.162" stroke="#D1A092" stroke-width="6"/>
<line x1="261.5" y1="649.162" x2="261.5" y2="799.162" stroke="#D1A092" stroke-width="5"/>
<line x1="261.5" y1="649.162" x2="261.5" y2="799.162" stroke="#D1A092" stroke-width="5"/>
<line x1="3.5" y1="651" x2="3.5" y2="800" stroke="#D1A092" stroke-width="5"/>
<line x1="3.5" y1="651" x2="3.5" y2="800" stroke="#D1A092" stroke-width="5"/>
<path d="M133 723.162L134 868.162" stroke="#D1A092" stroke-width="5"/>
<line x1="262.079" y1="676.479" x2="133.6" y2="751.94" stroke="#D1A092" stroke-width="4"/>
<line x1="261.958" y1="780.925" x2="133.48" y2="856.385" stroke="#D1A092" stroke-width="4"/>
<line x1="262.273" y1="765.664" x2="133.794" y2="841.124" stroke="#D1A092" stroke-width="4"/>
<line x1="263.449" y1="749.896" x2="134.971" y2="825.357" stroke="#D1A092" stroke-width="4"/>
<line x1="262.039" y1="735.648" x2="133.56" y2="811.109" stroke="#D1A092" stroke-width="4"/>
<line x1="261.492" y1="720.894" x2="133.013" y2="796.354" stroke="#D1A092" stroke-width="4"/>
<line x1="262.668" y1="705.126" x2="134.189" y2="780.587" stroke="#D1A092" stroke-width="4"/>
<line x1="261.764" y1="691.74" x2="133.286" y2="767.2" stroke="#D1A092" stroke-width="4"/>
<line x1="261.531" y1="661.725" x2="133.053" y2="737.185" stroke="#D1A092" stroke-width="4"/>
<path d="M625.879 616.85L422.013 500.245L623.671 382.38L826.059 498.522L625.879 616.85Z" stroke="#DCB189" stroke-width="6"/>
<path d="M417.61 732.418L625.507 849.65L829.02 732.984" stroke="#DCB189" stroke-width="6"/>
<line x1="828.748" y1="497.093" x2="828.748" y2="735.598" stroke="#DCB189" stroke-width="5"/>
<line x1="828.748" y1="497.093" x2="828.748" y2="735.598" stroke="#DCB189" stroke-width="5"/>
<path d="M627.494 614.755L629.084 845.31" stroke="#DCB189" stroke-width="4"/>
<path d="M625.904 614.755L627.494 845.31" stroke="#DCB189" stroke-width="5"/>
<line x1="418.52" y1="499.984" x2="418.52" y2="734.984" stroke="#DCB189" stroke-width="5"/>
<line x1="829.314" y1="544.187" x2="624.874" y2="663.908" stroke="#DCB189" stroke-width="4"/>
<line x1="828.374" y1="710.058" x2="629.039" y2="826.79" stroke="#DCB189" stroke-width="4"/>
<line x1="829.486" y1="686.231" x2="628.424" y2="803.973" stroke="#DCB189" stroke-width="4"/>
<path d="M829.023 662L626.903 780.647" stroke="#DCB189" stroke-width="4"/>
<line x1="828.972" y1="637.86" x2="627.91" y2="755.602" stroke="#DCB189" stroke-width="4"/>
<line x1="828.357" y1="615.042" x2="627.296" y2="732.785" stroke="#DCB189" stroke-width="4"/>
<line x1="830.192" y1="589.739" x2="625.753" y2="709.459" stroke="#DCB189" stroke-width="4"/>
<line x1="828.783" y1="568.452" x2="624.343" y2="688.173" stroke="#DCB189" stroke-width="4"/>
<line x1="828.473" y1="520.726" x2="624.034" y2="640.447" stroke="#DCB189" stroke-width="4"/>
<path d="M829.355 493.534C832.737 495.427 832.774 500.282 829.419 502.224L627.952 618.914C626.442 619.788 624.585 619.812 623.052 618.977L417.768 507.047C414.357 505.187 414.278 500.317 417.627 498.348L620.047 379.277C621.578 378.376 623.473 378.355 625.023 379.223L829.355 493.534Z" fill="url(#paint1_linear_496_745)"/>
<path d="M416.413 506L625.025 619.5L627.025 849.5L418.525 734.5L416.413 506Z" fill="url(#paint2_linear_496_745)"/>
<defs>
<radialGradient id="paint0_radial_496_745" cx="0" cy="0" r="1" gradientUnits="userSpaceOnUse" gradientTransform="translate(634 615.822) rotate(-91.3764) scale(957.272 1075.98)">
<stop stop-color="#F3D775"/>
<stop offset="0.494792" stop-color="#AA9C6C" stop-opacity="0"/>
<stop offset="0.90625" stop-color="#D9D9D9" stop-opacity="0"/>
</radialGradient>
<linearGradient id="paint1_linear_496_745" x1="606.52" y1="404.236" x2="633.02" y2="584.736" gradientUnits="userSpaceOnUse">
<stop stop-color="#DC8BC4"/>
<stop offset="1" stop-color="#A05E8D"/>
</linearGradient>
<linearGradient id="paint2_linear_496_745" x1="561.791" y1="570.244" x2="471.914" y2="794.847" gradientUnits="userSpaceOnUse">
<stop stop-color="#D09D93"/>
<stop offset="1" stop-color="#F3D775"/>
</linearGradient>
</defs>
</svg>
